<?xml version="1.0" encoding="UTF-8"?>
<!DOCTYPE svg PUBLIC "-//W3C//DTD SVG 1.1//EN" "http://www.w3.org/Graphics/SVG/1.1/DTD/svg11.dtd">
<!-- Creator: CorelDRAW 2018 (64-Bit) -->
<svg xmlns="http://www.w3.org/2000/svg" xml:space="preserve" width="210mm" height="297mm" version="1.1" style="shape-rendering:geometricPrecision; text-rendering:geometricPrecision; image-rendering:optimizeQuality; fill-rule:evenodd; clip-rule:evenodd"
viewBox="0 0 21000 29700"
 xmlns:xlink="http://www.w3.org/1999/xlink">
 <defs>
  <style type="text/css">
   <![CDATA[
    .fil0 {fill:#FEFEFE}
   ]]>
  </style>
 </defs>
 <g id="Layer_x0020_1">
  <metadata id="CorelCorpID_0Corel-Layer"/>
  <path class="fil0" d="M14678.13 8550l3288.54 3288.54c138.54,138.54 138.54,364.58 0,503.13l-7962.5 7962.5 -3383.33 375.52c-452.08,51.04 -834.9,-331.77 -783.85,-783.85l375.52 -3383.33 7962.49 -7962.51c138.54,-138.54 364.58,-138.54 503.13,0zm5906.25 -834.9l-1779.17 -1779.17c-554.17,-554.17 -1454.69,-554.17 -2012.5,0l-1290.63 1290.63c-138.54,138.54 -138.54,364.58 0,503.13l3288.54 3288.54c138.54,138.54 364.58,138.54 503.13,0l1290.63 -1290.63c554.17,-557.81 554.17,-1458.33 0,-2012.5zm-6584.38 10423.44l0 3711.46 -11666.67 0 0 -11666.67 8378.13 0c116.67,0 226.04,-47.4 309.9,-127.6l1458.33 -1458.33c277.08,-277.08 80.21,-747.4 -309.9,-747.4l-10419.79 0c-966.15,0 -1750,783.85 -1750,1750l0 12833.33c0,966.15 783.85,1750 1750,1750l12833.33 0c966.15,0 1750,-783.85 1750,-1750l0 -5753.12c0,-390.1 -470.31,-583.33 -747.4,-309.9l-1458.33 1458.33c-80.21,83.85 -127.6,193.23 -127.6,309.9z"/>
 </g>
</svg>
