<?xml version="1.0" encoding="UTF-8"?>
<!DOCTYPE svg PUBLIC "-//W3C//DTD SVG 1.1//EN" "http://www.w3.org/Graphics/SVG/1.1/DTD/svg11.dtd">
<!-- Creator: CorelDRAW 2018 (64-Bit) -->
<svg xmlns="http://www.w3.org/2000/svg" xml:space="preserve" width="210mm" height="297mm" version="1.1" style="shape-rendering:geometricPrecision; text-rendering:geometricPrecision; image-rendering:optimizeQuality; fill-rule:evenodd; clip-rule:evenodd"
viewBox="0 0 21000 29700"
 xmlns:xlink="http://www.w3.org/1999/xlink">
 <defs>
  <style type="text/css">
   <![CDATA[
    .fil0 {fill:#FEFEFE}
   ]]>
  </style>
 </defs>
 <g id="Layer_x0020_1">
  <metadata id="CorelCorpID_0Corel-Layer"/>
  <path class="fil0" d="M14246.98 10785.48c-613.92,-3780.84 -2061.9,-6435.48 -3746.98,-6435.48 -1685.08,0 -3133.06,2654.64 -3746.98,6435.48l7493.96 0zm-7811.5 4064.52c0,939.92 50.81,1841.73 139.72,2709.68l7845.36 0c88.91,-867.94 139.72,-1769.76 139.72,-2709.68 0,-939.92 -50.81,-1841.73 -139.72,-2709.68l-7845.36 0c-88.91,867.94 -139.72,1769.76 -139.72,2709.68zm13747.38 -4064.52c-1210.89,-2874.8 -3662.3,-5097.58 -6689.52,-5995.16 1033.06,1431.05 1744.35,3586.09 2116.94,5995.16l4572.58 0zm-12680.44 -5995.16c-3022.98,897.58 -5478.63,3120.37 -6685.28,5995.16l4572.58 0c368.35,-2409.07 1079.64,-4564.11 2112.7,-5995.16zm13133.47 7350l-4856.25 0c88.91,889.11 139.72,1799.4 139.72,2709.68 0,910.28 -50.81,1820.56 -139.72,2709.68l4852.01 0c232.86,-867.94 364.11,-1769.76 364.11,-2709.68 0,-939.92 -131.25,-1841.73 -359.88,-2709.68l0.01 0zm-15555.24 2709.68c0,-910.28 50.81,-1820.56 139.72,-2709.68l-4856.26 0c-228.63,867.95 -364.11,1769.76 -364.11,2709.68 0,939.92 135.48,1841.73 364.11,2709.68l4852.02 0c-84.68,-889.11 -135.48,-1799.4 -135.48,-2709.68zm1672.37 4064.52c613.91,3780.85 2061.9,6435.48 3746.98,6435.48 1685.08,0 3133.06,-2654.64 3746.98,-6435.48l-7493.96 0zm6744.56 5995.16c3022.98,-897.58 5478.63,-3120.36 6689.52,-5995.16l-4572.58 0c-372.58,2409.07 -1083.87,4564.11 -2116.94,5995.16zm-12680.44 -5995.16c1210.89,2874.8 3662.3,5097.58 6689.52,5995.16 -1033.06,-1431.05 -1744.35,-3586.09 -2116.94,-5995.16l-4572.58 0z"/>
 </g>
</svg>
