<?xml version="1.0" encoding="UTF-8"?>
<!DOCTYPE svg PUBLIC "-//W3C//DTD SVG 1.1//EN" "http://www.w3.org/Graphics/SVG/1.1/DTD/svg11.dtd">
<!-- Creator: CorelDRAW 2018 (64-Bit) -->
<svg xmlns="http://www.w3.org/2000/svg" xml:space="preserve" width="210mm" height="297mm" version="1.1" style="shape-rendering:geometricPrecision; text-rendering:geometricPrecision; image-rendering:optimizeQuality; fill-rule:evenodd; clip-rule:evenodd"
viewBox="0 0 21000 29700"
 xmlns:xlink="http://www.w3.org/1999/xlink">
 <defs>
  <style type="text/css">
   <![CDATA[
    .fil0 {fill:#FEFEFE}
   ]]>
  </style>
 </defs>
 <g id="Layer_x0020_1">
  <metadata id="CorelCorpID_0Corel-Layer"/>
  <path class="fil0" d="M9420.91 28285.08c-7945.99,-11519.32 -9420.91,-12701.56 -9420.91,-16935.08 0,-5799.01 4700.99,-10500 10500,-10500 5799.01,0 10500,4700.99 10500,10500 0,4233.52 -1474.92,5415.76 -9420.91,16935.08 -521.45,753.27 -1636.8,753.21 -2158.19,0l0.01 0zm1079.09 -12560.08c2416.26,0 4375,-1958.74 4375,-4375 0,-2416.26 -1958.74,-4375 -4375,-4375 -2416.26,0 -4375,1958.74 -4375,4375 0,2416.26 1958.74,4375 4375,4375z"/>
 </g>
</svg>
