<?xml version="1.0" encoding="UTF-8"?>
<!DOCTYPE svg PUBLIC "-//W3C//DTD SVG 1.1//EN" "http://www.w3.org/Graphics/SVG/1.1/DTD/svg11.dtd">
<!-- Creator: CorelDRAW 2018 (64-Bit) -->
<svg xmlns="http://www.w3.org/2000/svg" xml:space="preserve" width="210mm" height="128.62mm" version="1.1" style="shape-rendering:geometricPrecision; text-rendering:geometricPrecision; image-rendering:optimizeQuality; fill-rule:evenodd; clip-rule:evenodd"
viewBox="0 0 21000 12862.04"
 xmlns:xlink="http://www.w3.org/1999/xlink">
 <defs>
  <style type="text/css">
   <![CDATA[
    .fil0 {fill:#2B7A46}
    .fil1 {fill:white}
   ]]>
  </style>
 </defs>
 <g id="Layer_x0020_1">
  <metadata id="CorelCorpID_0Corel-Layer"/>
  <path class="fil0" d="M8452.51 9124.7l1896.56 -1092.66c19.68,-9.84 42.65,-9.84 59.06,0l1896.56 1092.66c19.69,9.84 29.53,29.53 29.53,52.5l0 2188.59c0,22.97 -13.12,42.66 -29.53,52.5l-1896.56 1095.94c-16.4,9.84 -42.65,9.84 -59.06,0l-485.63 -288.75c-13.13,-6.56 -32.81,-9.84 -45.94,-3.28 -134.53,78.75 -160.78,88.59 -285.47,131.25 -32.81,9.84 -78.75,29.53 16.41,82.03l629.99 374.06c62.35,32.81 131.25,52.5 200.15,52.5 72.19,0 141.1,-19.69 196.88,-55.78l1896.56 -1095.94c124.69,-68.9 200.16,-203.44 200.16,-344.53l0 -2188.59c0,-141.09 -78.75,-272.34 -200.16,-344.53l-1896.56 -1095.94c-118.12,-68.91 -275.62,-68.91 -397.03,0l-1896.56 1095.94c-124.69,68.9 -200.16,203.44 -200.16,344.53l0 2188.59c0,141.09 78.75,272.34 200.16,344.53l498.75 285.47c239.53,118.13 328.13,118.13 436.41,118.13 357.65,0 561.09,-213.29 561.09,-590.63l0 -2162.34c0,-32.81 -26.25,-55.78 -55.78,-55.78l-239.52 0c-32.81,0 -55.78,26.25 -55.78,55.78l0 2162.34c0,164.06 -173.9,331.4 -456.09,190.31l-518.44 -298.59c-16.4,-9.84 -29.53,-29.53 -29.53,-49.22l0 -2188.59c0,-19.69 9.84,-42.66 29.53,-52.5z"/>
  <path class="fil0" d="M11051.25 10105.79c-590.63,-78.75 -649.69,-118.13 -649.69,-255.94 0,-114.84 49.22,-265.78 485.63,-265.78 390.47,0 534.84,85.31 593.91,347.81 6.56,26.25 26.25,42.66 52.5,42.66l246.09 0c16.41,0 29.53,-6.56 39.38,-16.41 9.84,-13.13 16.41,-26.25 13.13,-42.66 -39.38,-452.81 -337.97,-662.81 -945,-662.81 -541.41,0 -862.97,229.69 -862.97,610.31 0,416.72 321.56,528.28 840,580.78 620.16,62.34 669.38,150.94 669.38,272.34 0,213.28 -170.63,301.88 -570.94,301.88 -502.03,0 -613.59,-124.69 -649.69,-374.06 -3.28,-26.25 -26.25,-45.94 -55.78,-45.94l-246.11 0.01c-29.53,0 -55.78,22.97 -55.78,55.78 0,318.28 173.91,698.91 1004.06,698.91 607.03,0 951.56,-236.25 951.57,-649.69 0,-410.16 -275.63,-518.44 -859.69,-597.19z"/>
  <path class="fil0" d="M18319.22 5256.11l0 446.25c0,16.41 9.84,32.81 22.97,39.38l387.19 223.13c13.13,9.84 32.81,9.84 45.94,0l387.18 -223.14c13.13,-9.84 22.97,-22.97 22.97,-39.38l0 -446.25c0,-16.41 -9.84,-32.81 -22.97,-39.38l-387.19 -223.13c-13.13,-9.84 -32.81,-9.84 -45.94,0l-387.18 223.14c-13.13,9.84 -22.97,22.97 -22.97,39.38z"/>
  <path class="fil0" d="M13338.28 9032.82l-62.34 0 0 -114.84 65.63 0c19.68,0 59.06,0 59.05,55.78 0,22.97 -9.84,59.06 -62.34,59.06zm144.38 -72.19c0,-108.28 -95.16,-108.28 -144.38,-108.28l-141.09 0 0 410.16 78.75 0 0 -164.06 72.18 0c29.53,0 36.1,13.12 42.66,36.09 0,3.28 13.13,108.28 16.41,127.97l85.32 0c-9.85,-19.69 -16.41,-75.47 -19.69,-108.28 -9.85,-52.5 -13.13,-88.6 -68.91,-91.88 29.53,-9.84 78.75,-26.25 78.75,-101.72z"/>
  <path class="fil0" d="M13026.56 9059.07c0,-170.63 137.82,-305.16 305.16,-305.16 170.63,0 308.44,134.53 308.44,305.16 0,167.35 -137.81,305.16 -308.44,308.44 -167.35,0 -305.16,-137.81 -305.16,-308.44zm308.44 -364.22c-193.59,0 -364.22,157.5 -364.22,364.22 0,200.16 164.06,364.22 364.22,364.22 200.16,0 364.22,-164.06 364.22,-364.22 0,-206.72 -167.34,-367.5 -364.22,-364.22z"/>
  <path class="fil1" d="M4498.61 7415.16l6.55 -3117.18c0,-88.59 -45.94,-167.34 -121.41,-210l-2011.41 -1158.28c-32.81,-19.69 -72.19,-29.53 -111.56,-32.81l-19.69 -0.01c-39.38,0 -75.47,13.13 -111.56,32.81l-2008.12 1158.29c-75.47,42.65 -121.41,124.68 -121.41,210l3.28 3117.19c0,42.66 22.97,82.03 59.06,105 36.09,22.97 82.03,22.97 121.41,0l1194.37 -685.79c75.47,-45.94 121.41,-124.69 121.41,-210l0 -1456.88c0,-85.31 45.94,-167.34 121.41,-210l508.59 -292.03c39.38,-22.97 78.75,-32.81 121.41,-32.81 42.66,0 85.31,9.84 121.41,32.81l508.59 292.03c75.47,42.66 121.41,124.69 121.41,210l0 1456.88c0,85.31 45.94,167.34 121.41,210l1194.38 685.78c36.09,22.97 85.31,22.97 121.41,0 36.09,-19.69 59.06,-62.34 59.06,-105z"/>
  <path class="fil1" d="M5492.82 4334.07l0 2310c0,91.88 62.34,170.63 131.25,210l2008.13 1155c78.75,45.94 170.63,42.66 242.81,0l2001.56 -1155c59.06,-32.81 101.72,-88.59 118.13,-154.22 3.28,-16.41 6.56,-36.09 6.55,-55.78l0 -2310c0,-85.31 -52.5,-167.34 -127.97,-210l-2004.84 -1155c-68.91,-39.38 -164.06,-45.94 -242.81,0l-2004.84 1155c-75.47,42.66 -127.97,121.41 -127.97,210z"/>
  <path class="fil1" d="M10995.46 4360.32l0 2323.13c0,85.31 45.94,167.34 121.41,210l2011.41 1161.56c75.47,42.66 167.34,42.66 242.81,0l2011.41 -1161.56c75.47,-42.66 121.41,-124.69 121.41,-210l0 -5788.13c0,-88.59 -49.22,-170.62 -124.69,-210l-1197.66 -669.38c-82.03,-45.94 -180.47,13.12 -180.47,105l0 3084.38c0,62.35 -72.19,105 -127.97,72.19l-502.03 -288.75c-75.47,-42.66 -167.34,-42.66 -242.81,0l-2011.41 1161.56c-75.47,42.66 -121.41,124.69 -121.41,210zm2969.54 712.03c16.4,9.84 29.53,29.53 29.53,52.5l-3.28 0 0 797.34c0,22.97 -9.84,42.66 -29.53,52.5l-689.06 397.03c-16.4,9.84 -39.37,9.84 -59.06,0l-689.06 -397.03c-16.4,-9.84 -29.53,-29.53 -29.53,-52.5l0 -797.34c0,-22.97 9.84,-42.66 29.53,-52.5l689.06 -400.31c19.68,-9.84 42.65,-9.84 62.34,0l689.06 400.31z"/>
  <path class="fil1" d="M18637.5 2959.23l-2011.41 1161.56c-75.47,42.66 -121.41,124.69 -121.41,210l0 2323.13c0,88.59 45.94,167.34 121.41,210l1998.28 1138.59c72.19,42.66 164.06,42.66 239.53,0l1207.5 -672.66c82.03,-45.94 82.03,-164.06 0,-210l-2024.52 -1161.56c-39.38,-22.97 -62.34,-62.34 -62.34,-105l0 -728.44c0,-42.66 22.97,-82.03 62.34,-105l630 -364.22c36.09,-22.97 85.31,-22.97 121.41,0l630 364.22c36.09,22.97 62.34,62.34 62.34,105l0 570.94c0,91.88 101.72,150.94 183.75,105l1204.21 -698.91c75.47,-42.66 121.41,-124.69 121.41,-210l0 -561.09c0,-85.31 -45.94,-167.34 -121.41,-210l-1998.28 -1161.56c-75.47,-42.66 -167.34,-42.66 -242.81,0z"/>
 </g>
</svg>
