<?xml version="1.0" encoding="UTF-8"?>
<!DOCTYPE svg PUBLIC "-//W3C//DTD SVG 1.1//EN" "http://www.w3.org/Graphics/SVG/1.1/DTD/svg11.dtd">
<!-- Creator: CorelDRAW 2018 (64-Bit) -->
<svg xmlns="http://www.w3.org/2000/svg" xml:space="preserve" width="210mm" height="297mm" version="1.1" style="shape-rendering:geometricPrecision; text-rendering:geometricPrecision; image-rendering:optimizeQuality; fill-rule:evenodd; clip-rule:evenodd"
viewBox="0 0 21000 29700"
 xmlns:xlink="http://www.w3.org/1999/xlink">
 <defs>
  <style type="text/css">
   <![CDATA[
    .fil0 {fill:#FEFEFE}
   ]]>
  </style>
 </defs>
 <g id="Layer_x0020_1">
  <metadata id="CorelCorpID_0Corel-Layer"/>
  <path class="fil0" d="M20400.76 19189.45l-4593.75 -1968.75c-121.9,-51.9 -253.37,-78.82 -385.93,-78.82 -295.52,0 -575.65,133.04 -762.53,361.86l-2034.38 2485.55c-3190.18,-1503.05 -5764.51,-4077.38 -7267.91,-7267.91l2485.55 -2034.38c229.55,-186.03 362.73,-465.94 362.73,-761.44 0,-132.82 -27.09,-264.69 -79.36,-386.72l-1968.75 -4593.75c-157.47,-361.11 -514.24,-594.72 -908.27,-594.72 -73.8,0 -147.72,8.35 -219.58,24.68l-4265.63 984.38c-446.52,102.95 -762.95,500.86 -762.95,959.1 0,0 0,0.24 0,0.24 0,10520.51 8527.15,19031.25 19031.25,19031.25 0.15,-0.02 0.51,-0.02 0.63,-0.02 458.24,0 856.15,-316.43 959.14,-762.89l984.38 -4265.63c16.09,-71.65 24.24,-145 24.24,-218.46 0,-396.51 -235.35,-755.44 -598.9,-913.56l0.02 -0.01z"/>
 </g>
</svg>
