<?xml version="1.0" encoding="UTF-8"?>
<!DOCTYPE svg PUBLIC "-//W3C//DTD SVG 1.1//EN" "http://www.w3.org/Graphics/SVG/1.1/DTD/svg11.dtd">
<!-- Creator: CorelDRAW 2018 (64-Bit) -->
<svg xmlns="http://www.w3.org/2000/svg" xml:space="preserve" width="210mm" height="297mm" version="1.1" style="shape-rendering:geometricPrecision; text-rendering:geometricPrecision; image-rendering:optimizeQuality; fill-rule:evenodd; clip-rule:evenodd"
viewBox="0 0 21000 29700"
 xmlns:xlink="http://www.w3.org/1999/xlink">
 <defs>
  <style type="text/css">
   <![CDATA[
    .fil0 {fill:#FEFEFE}
   ]]>
  </style>
 </defs>
 <g id="Layer_x0020_1">
  <metadata id="CorelCorpID_0Corel-Layer"/>
  <path class="fil0" d="M3150 13800c1158.28,0 2100,-941.72 2100,-2100 0,-1158.28 -941.72,-2100 -2100,-2100 -1158.28,0 -2100,941.72 -2100,2100 0,1158.28 941.72,2100 2100,2100zm14700 0c1158.28,0 2100,-941.72 2100,-2100 0,-1158.28 -941.72,-2100 -2100,-2100 -1158.28,0 -2100,941.72 -2100,2100 0,1158.28 941.72,2100 2100,2100zm1050 1050l-2100 0c-577.5,0 -1099.22,232.97 -1479.84,610.31 1322.34,725.16 2260.78,2034.38 2464.22,3589.69l2165.62 0c580.78,0 1050,-469.22 1050,-1050l0 -1050c0,-1158.28 -941.72,-2100 -2100,-2100zm-8400 0c2031.09,0 3675,-1643.91 3675,-3675 0,-2031.09 -1643.91,-3675 -3675,-3675 -2031.09,0 -3675,1643.91 -3675,3675 0,2031.09 1643.91,3675 3675,3675zm2520 1050l-272.34 0c-682.5,328.13 -1440.47,525 -2247.66,525 -807.19,0 -1561.88,-196.88 -2247.66,-525l-272.34 0c-2086.88,0 -3780,1693.13 -3780,3780l0 945c0,869.53 705.47,1575 1575,1575l9450 0c869.53,0 1575,-705.47 1575,-1575l0 -945c0,-2086.88 -1693.13,-3780 -3780,-3780zm-7340.16 -439.69c-380.62,-377.34 -902.34,-610.31 -1479.84,-610.31l-2100 0c-1158.28,0 -2100,941.72 -2100,2100l0 1050c0,580.78 469.22,1050 1050,1050l2162.34 0c206.72,-1555.31 1145.16,-2864.53 2467.5,-3589.69z"/>
 </g>
</svg>
